<svg id="Logo" xmlns="http://www.w3.org/2000/svg" viewBox="0 0 451.694 220.997"><defs><style>.cls-1{fill:#f60;}.cls-2{fill:#4d148c;}</style></defs><path id="Registration" class="cls-1" d="M420.634,147.922c0-5.361-3.734-9.191-9-9.191a8.858,8.858,0,0,0-9,9.191c0,5.361,3.734,9.19,9,9.19a8.8,8.8,0,0,0,9-9.19Zm-11.3.478v6.2h-1.865V141.207h4.289c2.872,0,4.424,1.143,4.424,3.536a2.862,2.862,0,0,1-2.16,2.934v.008c1.149.191,1.535,1.194,1.822,3.013.192,1.149.383,3.255.862,3.733h-2.3c-.574-1.244-.479-2.967-.862-4.5a1.939,1.939,0,0,0-2.2-1.532h-2.011Zm2.394-1.723c1.914,0,2.469-.949,2.469-1.906,0-1.053-.651-1.923-2.469-1.923h-2.394v3.776l2.394.053Zm-11.2,1.245a11.105,11.105,0,1,1,11.105,11.009,10.841,10.841,0,0,1-11.105-11.009Z"/><polygon id="X" class="cls-1" points="360.671 159 346.805 143.415 333.547 159.009 306.001 159.012 332.991 127.8 306.001 97.012 335.001 97.012 348.006 111.984 361.001 97.012 388.001 97.012 361.62 127.6 389.705 159 360.671 159"/><polygon id="E" class="cls-1" points="252.001 159.012 252.001 62.012 306.001 62.012 306.001 84.012 275.001 84.012 275.001 97.012 306.001 97.012 306.001 118.012 275.001 118.012 275.001 137.012 306.001 137.012 306.001 159.012 252.001 159.012"/><path id="Fed" class="cls-2" d="M230,62.012v40l-.814-.639c-5.005-5.7-11.879-7.361-19.186-7.361-14.915,0-25.458,9.664-29.362,23.077C176.134,102.374,164.118,94.012,147,94.012c-13.914,0-25.294,5.789-31,16v-13H88v-13h31v-22H62v97H88v-41l25.571-.222a36.939,36.939,0,0,0-1.2,9.509c0,20.12,15.316,34.535,34.935,34.535,16.517,0,26.89-7.708,32.7-21.822H158c-3,4.2-4.69,5.205-10.6,5.205-6.907,0-13.113-6.206-13.113-13.413h45.045c1.9,16.016,14.41,30.208,31.528,30.208A24.082,24.082,0,0,0,230,151.755v7.257h22v-97ZM135.293,118.09c1.4-6.106,6.206-10.11,12.112-10.11,6.507,0,11.011,3.9,12.213,10.11Zm80.381,25.626c-8.309,0-13.514-7.808-13.514-15.916,0-8.709,4.5-17.017,13.514-17.017,9.309,0,13.113,8.308,13.113,17.017C228.787,136.108,224.783,143.716,215.674,143.716Z"/></svg>